<?xml version="1.0" standalone="no"?>
<!DOCTYPE svg PUBLIC "-//W3C//DTD SVG 20010904//EN"
 "http://www.w3.org/TR/2001/REC-SVG-20010904/DTD/svg10.dtd">
<svg version="1.0" xmlns="http://www.w3.org/2000/svg"
 width="146.000000pt" height="146.000000pt" viewBox="0 0 146.000000 146.000000"
 preserveAspectRatio="xMidYMid meet">
<metadata>
Created by potrace 1.11, written by Peter Selinger 2001-2013
</metadata>
<g transform="translate(0.000000,146.000000) scale(0.100000,-0.100000)"
fill="#000000" stroke="none">
<path d="M558 1439 c-226 -54 -416 -220 -505 -440 -14 -34 -27 -73 -29 -88 -3
-14 -9 -41 -14 -58 -4 -18 -8 -72 -8 -120 2 -334 204 -603 528 -704 98 -31
292 -34 385 -6 173 51 300 139 403 278 49 65 109 191 118 245 3 20 9 47 14 58
11 31 10 205 -1 256 -6 25 -12 52 -14 60 -8 34 -36 105 -62 153 -97 184 -281
324 -486 370 -92 21 -234 19 -329 -4z m142 -9 c0 -23 -118 -150 -178 -191 -48
-34 -155 -89 -183 -94 -10 -2 -24 -7 -30 -10 -16 -11 -169 -33 -169 -25 0 22
106 138 171 186 69 50 175 100 254 118 108 24 135 27 135 16z m190 -14 c84
-21 158 -53 230 -101 67 -45 167 -141 189 -184 l13 -24 -61 7 c-107 12 -234
64 -323 132 -54 42 -168 161 -168 177 0 11 59 8 120 -7z m-94 -165 c7 -31 13
-67 14 -81 0 -25 -1 -25 -76 -25 l-76 0 6 45 c5 50 27 127 53 186 l16 39 25
-54 c13 -29 30 -79 38 -110z m106 -14 c77 -59 200 -123 255 -133 18 -3 33 -9
33 -13 0 -3 -37 -18 -81 -33 l-81 -26 -47 33 c-26 19 -67 43 -92 53 l-44 19
-12 74 c-6 41 -15 83 -18 94 -6 17 -5 17 4 4 6 -9 43 -42 83 -72z m-257 23
c-16 -62 -15 -54 -15 -89 0 -26 -6 -32 -46 -47 -25 -9 -69 -34 -99 -55 l-54
-37 -58 24 c-32 13 -66 24 -75 24 -9 0 -20 6 -24 13 -4 6 -4 9 0 5 11 -9 104
24 184 67 67 35 160 104 175 131 18 31 24 11 12 -36z m-311 -223 c37 -14 70
-27 73 -31 3 -3 -3 -13 -12 -23 -10 -9 -28 -39 -40 -65 l-22 -48 -39 28 c-42
30 -128 122 -146 155 -10 19 -8 20 54 14 35 -3 94 -17 132 -30z m975 11 c-15
-29 -165 -178 -179 -178 -5 0 -10 6 -10 13 0 7 -15 37 -34 67 l-34 54 31 14
c54 24 149 48 194 51 43 2 44 1 32 -21z m-1145 -153 c37 -143 23 -301 -41
-454 -13 -31 -15 -32 -28 -15 -30 44 -66 190 -69 284 -3 90 37 278 71 333 9
15 47 -69 67 -148z m1251 -5 c31 -125 22 -280 -22 -395 -37 -98 -32 -91 -47
-69 -17 25 -53 137 -63 199 -20 116 3 283 54 394 l16 35 22 -45 c12 -24 30
-78 40 -119z m-637 94 l30 -6 -18 -67 c-10 -36 -26 -84 -36 -106 l-17 -40 -23
50 c-30 66 -49 138 -41 158 7 18 49 22 105 11z m-130 -71 c5 -24 8 -43 5 -43
-7 0 -76 70 -72 74 16 13 45 24 50 18 3 -4 11 -26 17 -49z m-378 -35 l45 -36
-1 -112 0 -111 -40 -32 c-21 -17 -52 -45 -68 -62 -22 -23 -27 -26 -23 -10 21
68 29 132 29 221 0 88 -6 131 -29 208 -5 17 -2 16 18 -5 13 -14 44 -41 69 -61z
m603 70 c15 -12 12 -17 -25 -51 -22 -21 -38 -32 -35 -23 3 8 9 31 13 50 7 38
19 44 47 24z m390 -55 c-19 -85 -19 -250 0 -325 13 -54 8 -76 -10 -44 -4 8
-30 32 -58 55 l-49 41 -1 111 0 111 40 31 c22 17 51 44 64 59 13 15 25 28 26
28 2 0 -4 -30 -12 -67z m-602 -86 c22 -27 39 -52 39 -56 0 -11 -116 6 -172 25
-27 9 -48 20 -48 25 0 15 19 49 47 87 l25 34 35 -34 c20 -18 53 -55 74 -81z
m271 86 c18 -21 48 -78 48 -92 0 -5 -21 -16 -47 -25 -56 -18 -163 -36 -163
-27 0 18 125 161 140 161 4 0 14 -8 22 -17z m-392 -155 c24 -10 23 -11 -20
-24 -25 -7 -46 -14 -47 -14 -2 0 -3 14 -3 31 0 33 3 33 70 7z m450 -9 c0 -26
-3 -30 -17 -24 -10 3 -30 9 -45 12 -34 7 -28 20 15 32 47 14 47 14 47 -20z
m-300 -39 c-6 -11 -38 -49 -72 -85 -59 -64 -61 -65 -80 -48 -20 18 -58 84 -58
101 0 20 105 49 178 51 40 1 42 0 32 -19z m243 -5 c26 -10 47 -22 47 -29 0
-17 -58 -106 -69 -106 -12 0 -141 141 -141 153 0 13 106 1 163 -18z m-137
-152 c11 -49 11 -52 -10 -57 -27 -7 -90 -8 -109 0 -13 5 -13 15 4 76 11 39 27
87 36 107 l15 36 26 -55 c14 -30 31 -78 38 -107z m-148 20 c-13 -61 -19 -66
-46 -47 l-23 16 38 38 c21 22 39 39 39 40 1 0 -3 -21 -8 -47z m225 -40 c-27
-21 -40 -15 -46 20 -3 17 -9 41 -13 52 -5 13 7 6 34 -20 37 -36 39 -41 25 -52z
m-522 35 c12 -24 30 -54 41 -67 19 -25 19 -25 -7 -39 -15 -7 -34 -15 -43 -17
-9 -2 -30 -8 -45 -14 -16 -6 -52 -14 -80 -17 -29 -4 -55 -8 -59 -10 -4 -3 -9
0 -12 5 -8 12 59 95 123 154 29 26 55 47 57 47 2 0 13 -19 25 -42z m874 -39
c33 -32 69 -72 79 -90 l19 -32 -59 7 c-32 3 -94 18 -137 33 -75 26 -77 27 -62
47 9 12 26 42 38 67 26 56 32 55 122 -32z m-657 -165 c49 -19 57 -27 60 -51 2
-28 18 -101 28 -136 4 -12 -11 -2 -38 24 -76 75 -179 133 -323 183 -15 5 0 14
60 35 l80 27 38 -29 c21 -16 64 -40 95 -53z m526 62 c34 -13 70 -26 81 -30 14
-5 -1 -14 -62 -35 -86 -30 -191 -94 -260 -160 -24 -21 -43 -39 -43 -38 0 1 7
26 14 55 17 64 16 56 16 91 0 27 7 33 63 60 34 17 76 42 92 55 17 14 32 25 34
26 3 0 32 -11 65 -24z m-779 -84 c78 -24 140 -53 200 -95 104 -73 223 -222
162 -202 -7 2 -31 6 -54 9 -86 11 -239 72 -302 120 -46 36 -149 139 -164 166
l-19 31 49 -2 c26 -2 84 -14 128 -27z m994 6 c-6 -13 -48 -59 -93 -103 -81
-78 -178 -139 -267 -166 -58 -17 -179 -37 -179 -28 0 11 73 99 116 140 99 94
270 171 392 178 42 2 43 1 31 -21z m-502 -57 c-6 -52 -52 -200 -67 -215 -11
-11 -36 47 -61 138 -31 114 -31 114 49 119 37 2 71 4 76 5 5 1 6 -20 3 -47z"/>
</g>
</svg>
